<svg version="1.0" xmlns="http://www.w3.org/2000/svg"
 width="800.000000pt" height="310.000000pt" viewBox="0 0 800.000000 310.000000"
 preserveAspectRatio="xMidYMid meet">

<g transform="translate(0.000000,310.000000) scale(0.100000,-0.100000)"
fill="#000000" stroke="none">
<path d="M1671 3087 c-42 -25 -50 -54 -51 -180 l0 -119 27 33 c36 42 79 59
153 59 66 0 113 18 130 49 19 37 12 107 -14 138 -23 27 -29 28 -123 31 -69 1
-105 -2 -122 -11z"/>
<path d="M3867 3029 c-32 -19 -47 -73 -47 -169 l0 -90 -100 0 -100 0 0 -60 c0
-106 34 -140 139 -140 l59 0 4 -342 c4 -327 5 -346 27 -400 27 -70 91 -137
164 -172 93 -45 168 -58 340 -60 l159 -1 24 28 c20 24 24 39 24 96 l0 68 -112
6 c-165 8 -238 39 -277 120 -20 41 -21 60 -21 350 l0 307 340 0 340 0 0 -332
c0 -383 5 -417 73 -494 48 -54 91 -83 169 -112 68 -25 245 -46 357 -41 72 4
84 7 108 31 23 24 28 38 31 96 l4 69 -118 6 c-66 3 -137 11 -159 19 -54 18
-120 83 -134 133 -7 25 -11 151 -11 333 l0 292 165 0 c106 0 173 4 190 12 38
17 55 58 55 128 l0 60 -204 0 -204 0 -4 109 c-3 100 -5 112 -27 135 -23 25
-29 26 -133 26 -102 0 -110 -1 -133 -25 -24 -23 -25 -31 -25 -135 l0 -110
-340 0 -340 0 0 83 c0 98 -13 151 -43 172 -26 18 -211 21 -240 4z"/>
<path d="M7275 3015 l-25 -24 0 -549 c0 -619 0 -615 73 -698 48 -54 92 -83
169 -112 68 -25 245 -46 357 -41 72 4 84 7 108 31 23 24 28 38 31 96 l4 69
-118 6 c-132 6 -192 22 -237 65 -64 61 -62 37 -67 609 l-5 521 -24 26 c-23 25
-29 26 -133 26 -102 0 -110 -1 -133 -25z"/>
<path d="M50 2678 c26 -51 155 -300 285 -553 130 -253 248 -472 262 -487 35
-37 103 -58 185 -58 89 0 149 15 187 48 21 19 118 197 316 582 157 305 285
556 285 558 0 2 -57 2 -127 1 -119 -4 -131 -6 -176 -32 -59 -35 -54 -26 -276
-496 -97 -206 -184 -379 -194 -385 -14 -9 -20 -7 -30 9 -7 11 -96 197 -200
415 -238 502 -227 490 -454 490 l-111 0 48 -92z"/>
<path d="M1671 2757 c-51 -30 -50 -26 -51 -575 0 -566 -1 -559 61 -581 18 -6
65 -11 106 -11 79 0 125 16 143 49 6 13 10 204 10 545 l0 525 -24 28 c-23 27
-29 28 -123 31 -69 1 -105 -2 -122 -11z"/>
<path d="M2591 2760 c-157 -22 -280 -78 -355 -161 -85 -94 -112 -222 -103
-484 8 -235 48 -341 162 -427 115 -87 221 -100 753 -96 l394 3 29 33 c26 29
29 40 29 97 l0 64 -432 3 c-430 3 -433 3 -480 26 -84 42 -115 96 -120 217 l-3
60 475 5 c327 3 483 9 500 16 34 16 76 62 90 99 16 42 13 201 -4 258 -42 140
-137 221 -314 269 -66 17 -113 21 -317 24 -132 1 -269 -1 -304 -6z m357 -190
c169 -19 262 -94 262 -209 0 -70 -5 -71 -315 -71 -312 0 -352 -7 -404 -65
l-31 -36 0 75 c0 125 15 174 69 227 38 37 61 49 112 62 107 28 180 32 307 17z"/>
<path d="M6085 2756 c-249 -40 -378 -143 -422 -336 -26 -114 -23 -406 6 -515
41 -155 132 -244 298 -292 49 -14 128 -17 506 -21 474 -4 491 -3 522 42 10 13
15 45 15 88 l0 67 -427 3 -428 3 -60 30 c-79 40 -105 84 -112 195 l-6 79 480
3 479 3 41 27 c71 47 97 148 74 284 -16 92 -41 144 -95 202 -54 58 -122 94
-231 123 -69 19 -112 22 -320 25 -164 2 -265 -1 -320 -10z m480 -207 c74 -23
135 -77 153 -137 16 -53 15 -66 -7 -93 l-19 -24 -299 -5 c-284 -5 -300 -6
-340 -27 -23 -13 -49 -33 -57 -45 -15 -21 -16 -16 -16 77 1 147 34 204 145
250 91 39 322 41 440 4z"/>
<path d="M7730 795 l0 -85 -45 0 c-45 0 -45 0 -45 -35 0 -35 0 -35 45 -35 l45
0 0 -182 c0 -164 2 -186 20 -215 30 -49 72 -67 165 -67 l80 -1 3 32 c3 33 3
33 -43 33 -66 0 -110 21 -124 60 -6 19 -11 98 -11 186 l0 154 91 0 90 0 -3 33
-3 32 -87 3 -88 3 0 84 0 85 -45 0 -45 0 0 -85z"/>
<path d="M5783 700 c-12 -5 -26 -18 -32 -29 -7 -13 -11 -134 -11 -345 l0 -326
50 0 50 0 0 84 0 84 138 4 c118 3 144 7 185 27 60 29 92 82 107 177 22 143
-17 259 -105 303 -46 24 -60 26 -205 28 -85 2 -165 -1 -177 -7z m307 -73 c54
-19 80 -78 80 -187 -1 -165 -39 -200 -225 -200 l-105 0 0 193 c0 107 3 197 7
200 11 12 206 7 243 -6z"/>
<path d="M6502 691 c-105 -36 -147 -108 -147 -252 1 -200 82 -269 315 -269
134 0 198 18 249 69 45 45 64 106 64 205 -1 143 -47 219 -153 250 -77 23 -258
21 -328 -3z m297 -70 c59 -27 74 -59 79 -159 8 -168 -44 -225 -209 -225 -97 0
-148 18 -183 66 -17 23 -22 46 -24 125 -3 107 10 149 59 185 51 37 208 42 278
8z"/>
<path d="M7159 701 c-75 -23 -104 -66 -97 -143 9 -86 49 -111 250 -156 151
-34 178 -49 178 -97 0 -60 -18 -65 -232 -65 l-188 0 0 -35 0 -35 208 1 c133 0
219 4 241 12 51 18 73 53 73 121 1 92 -37 118 -227 160 -182 40 -205 53 -205
111 0 59 19 65 222 65 l178 0 0 35 0 35 -187 -1 c-104 0 -200 -4 -214 -8z"/>
</g>
</svg>